<svg xmlns="http://www.w3.org/2000/svg" xmlns:xlink="http://www.w3.org/1999/xlink" width="86" height="86"><defs><linearGradient id="a"><stop offset="0" stop-color="#d9d11e"/><stop offset="1" stop-color="#c27b1f"/></linearGradient><filter id="c" color-interpolation-filters="sRGB"><feFlood flood-opacity=".5" flood-color="#FFF" result="flood"/><feComposite in2="SourceGraphic" in="flood" operator="in" result="composite1"/><feGaussianBlur in="composite" stdDeviation="1" result="blur"/><feOffset dx="4" dy="4" result="offset"/><feComposite in2="offset" in="SourceGraphic" result="composite2"/></filter><linearGradient xlink:href="#a" id="b" gradientUnits="userSpaceOnUse" x1="30.817" y1="24.705" x2="62" y2="61"/></defs><g transform="translate(0 -966.362)"><path d="M0 0v86h57.812v-.063C74.535 77.984 86 61.75 86 43S74.535 8.014 57.812.062V0H0z" transform="translate(0 966.362)" fill="url(#b)" opacity=".8"/><path d="M0 1039.237v13.125h57.812v-.062c6.656-3.166 12.496-7.637 17.094-13.063zm58.969 3.125h8.375c-1.96 1.86-4.15 3.724-8.344 5.719-.737.164-1.063.445-1.031-.813l.062-2.5c.034-1.332.384-2.406.938-2.406zm-36.282.031h3.657c.352 0 .625 1.183.625 2.657v1.03c0 1.475-.273 2.657-.625 2.657h-3.657c-.352 0-.656-1.182-.656-2.656v-1.031c0-1.474.304-2.657.657-2.657zm9.063.032h3.656c.353 0 .625 1.182.625 2.656v1.031c0 1.474-.272 2.656-.625 2.656H31.75c-.352 0-.656-1.182-.656-2.656v-1.031c0-1.474.304-2.656.656-2.656zm8.906 0h3.657c.352 0 .656 1.182.656 2.656v1.031c0 1.474-.304 2.656-.657 2.656h-3.656c-.352 0-.625-1.182-.625-2.656v-1.031c0-1.474.273-2.656.625-2.656zm9.125 0h3.657c.352 0 .624 1.182.624 2.656v1.031c0 1.474-.272 2.656-.624 2.656H49.78c-.352 0-.656-1.182-.656-2.656v-1.031c0-1.474.304-2.656.656-2.656zm-45 .03h3.657c.352 0 .624 1.183.624 2.657v1.031c0 1.474-.272 2.657-.624 2.657H4.78c-.352 0-.625-1.183-.625-2.657v-1.03c0-1.475.273-2.657.625-2.657zm8.875 0h3.656c.353 0 .657 1.183.657 2.657v1.031c0 1.474-.304 2.657-.657 2.657h-3.656c-.352 0-.625-1.183-.625-2.657v-1.03c0-1.475.273-2.657.625-2.657z"/><path d="M54.06 978.168h3.943v62.407H54.06zm-45.055-.939h4.035v63.407H9.005z"/><rect width="5.48" height="7.766" x="16.121" y="969.085" ry="3.257" rx=".707" fill="#e1db4e"/><rect width="5.48" height="7.766" x="1.621" y="969.085" ry="3.257" rx=".707" fill="#e1db4e"/><path d="M24.75 995.487v27.75l20.5-13.5z" transform="translate(-1.775 -21.692) scale(1.02186)" stroke="#000" filter="url(#c)"/><path d="M0 979.487v-13.125h57.812v.062c6.656 3.166 12.496 7.637 17.094 13.063zm58.969-3.125h8.375c-1.96-1.86-4.15-3.724-8.344-5.719-.737-.164-1.063-.445-1.031.813l.062 2.5c.034 1.332.384 2.406.938 2.406zm-36.282-.031h3.657c.352 0 .625-1.182.625-2.656v-1.031c0-1.474-.273-2.657-.625-2.657h-3.657c-.352 0-.656 1.183-.656 2.657v1.03c0 1.475.304 2.657.657 2.657zm9.063-.031h3.656c.353 0 .625-1.183.625-2.656v-1.032c0-1.474-.272-2.656-.625-2.656H31.75c-.352 0-.656 1.182-.656 2.656v1.032c0 1.473.304 2.656.656 2.656zm8.906 0h3.657c.352 0 .656-1.183.656-2.656v-1.032c0-1.474-.304-2.656-.657-2.656h-3.656c-.352 0-.625 1.182-.625 2.656v1.032c0 1.473.273 2.656.625 2.656zm9.125 0h3.657c.352 0 .624-1.183.624-2.656v-1.032c0-1.474-.272-2.656-.624-2.656H49.78c-.352 0-.656 1.182-.656 2.656v1.032c0 1.473.304 2.656.656 2.656zm-45-.031h3.657c.352 0 .624-1.183.624-2.657v-1.03c0-1.475-.272-2.657-.624-2.657H4.78c-.352 0-.625 1.182-.625 2.656v1.031c0 1.474.273 2.657.625 2.657zm8.875 0h3.656c.353 0 .657-1.183.657-2.657v-1.03c0-1.475-.304-2.657-.657-2.657h-3.656c-.352 0-.625 1.182-.625 2.656v1.031c0 1.474.273 2.657.625 2.657z"/></g></svg>